<?xml version="1.0" encoding="UTF-8"?>
<svg version="1.1" xmlns="http://www.w3.org/2000/svg" width="1536" height="1536">
<path d="M0 0 C55.44 0 110.88 0 168 0 C168 19.8 168 39.6 168 60 C203.64 60 239.28 60 276 60 C276 79.8 276 99.6 276 120 C295.8 120 315.6 120 336 120 C336 139.8 336 159.6 336 180 C355.8 180 375.6 180 396 180 C396 223.56 396 267.12 396 312 C411.84 312 427.68 312 444 312 C444 331.8 444 351.6 444 372 C463.8 372 483.6 372 504 372 C504 391.8 504 411.6 504 432 C519.84 432 535.68 432 552 432 C552 451.8 552 471.6 552 492 C567.84 492 583.68 492 600 492 C600 511.8 600 531.6 600 552 C584.16 552 568.32 552 552 552 C552 575.76 552 599.52 552 624 C516.36 624 480.72 624 444 624 C444 723 444 822 444 924 C428.16 924 412.32 924 396 924 C396 947.76 396 971.52 396 996 C376.2 996 356.4 996 336 996 C336 1055.4 336 1114.8 336 1176 C316.2 1176 296.4 1176 276 1176 C276 1195.8 276 1215.6 276 1236 C260.16 1236 244.32 1236 228 1236 C228 1319.16 228 1402.32 228 1488 C208.2 1488 188.4 1488 168 1488 C168 1503.84 168 1519.68 168 1536 C132.36 1536 96.72 1536 60 1536 C60 1520.16 60 1504.32 60 1488 C40.2 1488 20.4 1488 0 1488 C0 1424.64 0 1361.28 0 1296 C-35.64 1296 -71.28 1296 -108 1296 C-108 1359.36 -108 1422.72 -108 1488 C-123.84 1488 -139.68 1488 -156 1488 C-156 1503.84 -156 1519.68 -156 1536 C-231.24 1536 -306.48 1536 -384 1536 C-384 1520.16 -384 1504.32 -384 1488 C-403.8 1488 -423.6 1488 -444 1488 C-444 1424.64 -444 1361.28 -444 1296 C-459.84 1296 -475.68 1296 -492 1296 C-492 1359.36 -492 1422.72 -492 1488 C-511.8 1488 -531.6 1488 -552 1488 C-552 1503.84 -552 1519.68 -552 1536 C-587.64 1536 -623.28 1536 -660 1536 C-660 1520.16 -660 1504.32 -660 1488 C-679.8 1488 -699.6 1488 -720 1488 C-720 1404.84 -720 1321.68 -720 1236 C-735.84 1236 -751.68 1236 -768 1236 C-768 1216.2 -768 1196.4 -768 1176 C-787.8 1176 -807.6 1176 -828 1176 C-828 1156.2 -828 1136.4 -828 1116 C-843.84 1116 -859.68 1116 -876 1116 C-876 1052.64 -876 989.28 -876 924 C-895.8 924 -915.6 924 -936 924 C-936 844.8 -936 765.6 -936 684 C-916.2 684 -896.4 684 -876 684 C-876 620.64 -876 557.28 -876 492 C-895.8 492 -915.6 492 -936 492 C-936 452.4 -936 412.8 -936 372 C-916.2 372 -896.4 372 -876 372 C-876 352.2 -876 332.4 -876 312 C-840.36 312 -804.72 312 -768 312 C-768 331.8 -768 351.6 -768 372 C-752.16 372 -736.32 372 -720 372 C-720 352.2 -720 332.4 -720 312 C-700.2 312 -680.4 312 -660 312 C-660 292.2 -660 272.4 -660 252 C-624.36 252 -588.72 252 -552 252 C-552 228.24 -552 204.48 -552 180 C-421.32 180 -290.64 180 -156 180 C-156 160.2 -156 140.4 -156 120 C-140.16 120 -124.32 120 -108 120 C-108 100.2 -108 80.4 -108 60 C-72.36 60 -36.72 60 0 60 C0 40.2 0 20.4 0 0 Z " fill="#CB9DDE" transform="translate(936,0)"/>
<path d="M0 0 C15.84 0 31.68 0 48 0 C48 19.8 48 39.6 48 60 C67.8 60 87.6 60 108 60 C108 79.8 108 99.6 108 120 C123.84 120 139.68 120 156 120 C156 139.8 156 159.6 156 180 C171.84 180 187.68 180 204 180 C204 199.8 204 219.6 204 240 C188.16 240 172.32 240 156 240 C156 263.76 156 287.52 156 312 C120.36 312 84.72 312 48 312 C48 411 48 510 48 612 C32.16 612 16.32 612 0 612 C0 635.76 0 659.52 0 684 C-19.8 684 -39.6 684 -60 684 C-60 743.4 -60 802.8 -60 864 C-79.8 864 -99.6 864 -120 864 C-120 824.4 -120 784.8 -120 744 C-191.28 744 -262.56 744 -336 744 C-336 724.2 -336 704.4 -336 684 C-355.8 684 -375.6 684 -396 684 C-396 660.24 -396 636.48 -396 612 C-411.84 612 -427.68 612 -444 612 C-444 592.2 -444 572.4 -444 552 C-463.8 552 -483.6 552 -504 552 C-504 472.8 -504 393.6 -504 312 C-539.64 312 -575.28 312 -612 312 C-612 248.64 -612 185.28 -612 120 C-592.2 120 -572.4 120 -552 120 C-552 100.2 -552 80.4 -552 60 C-516.36 60 -480.72 60 -444 60 C-444 79.8 -444 99.6 -444 120 C-388.56 120 -333.12 120 -276 120 C-276 139.8 -276 159.6 -276 180 C-224.52 180 -173.04 180 -120 180 C-120 160.2 -120 140.4 -120 120 C-80.4 120 -40.8 120 0 120 C0 80.4 0 40.8 0 0 Z " fill="#D78C83" transform="translate(1332,312)"/>
<path d="M0 0 C35.64 0 71.28 0 108 0 C108 19.8 108 39.6 108 60 C123.84 60 139.68 60 156 60 C156 40.2 156 20.4 156 0 C175.8 0 195.6 0 216 0 C216 39.6 216 79.2 216 120 C196.2 120 176.4 120 156 120 C156 159.6 156 199.2 156 240 C140.16 240 124.32 240 108 240 C108 263.76 108 287.52 108 312 C123.84 312 139.68 312 156 312 C156 331.8 156 351.6 156 372 C140.16 372 124.32 372 108 372 C108 391.8 108 411.6 108 432 C123.84 432 139.68 432 156 432 C156 471.6 156 511.2 156 552 C175.8 552 195.6 552 216 552 C216 571.8 216 591.6 216 612 C251.64 612 287.28 612 324 612 C324 655.56 324 699.12 324 744 C343.8 744 363.6 744 384 744 C384 763.8 384 783.6 384 804 C399.84 804 415.68 804 432 804 C432 784.2 432 764.4 432 744 C451.8 744 471.6 744 492 744 C492 763.8 492 783.6 492 804 C527.64 804 563.28 804 600 804 C600 926.76 600 1049.52 600 1176 C639.6 1176 679.2 1176 720 1176 C720 1191.84 720 1207.68 720 1224 C644.76 1224 569.52 1224 492 1224 C492 1208.16 492 1192.32 492 1176 C472.2 1176 452.4 1176 432 1176 C432 1112.64 432 1049.28 432 984 C416.16 984 400.32 984 384 984 C384 1047.36 384 1110.72 384 1176 C364.2 1176 344.4 1176 324 1176 C324 1191.84 324 1207.68 324 1224 C288.36 1224 252.72 1224 216 1224 C216 1208.16 216 1192.32 216 1176 C196.2 1176 176.4 1176 156 1176 C156 1092.84 156 1009.68 156 924 C140.16 924 124.32 924 108 924 C108 904.2 108 884.4 108 864 C88.2 864 68.4 864 48 864 C48 844.2 48 824.4 48 804 C32.16 804 16.32 804 0 804 C0 740.64 0 677.28 0 612 C-19.8 612 -39.6 612 -60 612 C-60 532.8 -60 453.6 -60 372 C-40.2 372 -20.4 372 0 372 C0 308.64 0 245.28 0 180 C-19.8 180 -39.6 180 -60 180 C-60 140.4 -60 100.8 -60 60 C-40.2 60 -20.4 60 0 60 C0 40.2 0 20.4 0 0 Z " fill="#A973C7" transform="translate(60,312)"/>
<path d="M0 0 C19.8 0 39.6 0 60 0 C60 63.36 60 126.72 60 192 C40.2 192 20.4 192 0 192 C0 172.2 0 152.4 0 132 C-19.8 132 -39.6 132 -60 132 C-60 171.6 -60 211.2 -60 252 C-20.4 252 19.2 252 60 252 C60 311.4 60 370.8 60 432 C40.2 432 20.4 432 0 432 C0 412.2 0 392.4 0 372 C-55.44 372 -110.88 372 -168 372 C-168 391.8 -168 411.6 -168 432 C-148.2 432 -128.4 432 -108 432 C-108 455.76 -108 479.52 -108 504 C-143.64 504 -179.28 504 -216 504 C-216 480.24 -216 456.48 -216 432 C-235.8 432 -255.6 432 -276 432 C-276 412.2 -276 392.4 -276 372 C-295.8 372 -315.6 372 -336 372 C-336 269.04 -336 166.08 -336 60 C-225.12 60 -114.24 60 0 60 C0 40.2 0 20.4 0 0 Z " fill="#E79F93" transform="translate(1272,492)"/>
<path d="M0 0 C19.8 0 39.6 0 60 0 C60 63.36 60 126.72 60 192 C95.64 192 131.28 192 168 192 C168 128.64 168 65.28 168 0 C259.08 0 350.16 0 444 0 C444 83.16 444 166.32 444 252 C483.6 252 523.2 252 564 252 C564 267.84 564 283.68 564 300 C488.76 300 413.52 300 336 300 C336 284.16 336 268.32 336 252 C316.2 252 296.4 252 276 252 C276 188.64 276 125.28 276 60 C260.16 60 244.32 60 228 60 C228 123.36 228 186.72 228 252 C208.2 252 188.4 252 168 252 C168 267.84 168 283.68 168 300 C132.36 300 96.72 300 60 300 C60 284.16 60 268.32 60 252 C40.2 252 20.4 252 0 252 C0 168.84 0 85.68 0 0 Z " fill="#4C284F" transform="translate(216,1236)"/>
<path d="M0 0 C71.28 0 142.56 0 216 0 C216 43.56 216 87.12 216 132 C251.64 132 287.28 132 324 132 C324 88.44 324 44.88 324 0 C343.8 0 363.6 0 384 0 C384 83.16 384 166.32 384 252 C364.2 252 344.4 252 324 252 C324 267.84 324 283.68 324 300 C288.36 300 252.72 300 216 300 C216 284.16 216 268.32 216 252 C196.2 252 176.4 252 156 252 C156 188.64 156 125.28 156 60 C120.36 60 84.72 60 48 60 C48 123.36 48 186.72 48 252 C32.16 252 16.32 252 0 252 C0 168.84 0 85.68 0 0 Z " fill="#4C284F" transform="translate(780,1236)"/>
<path d="M0 0 C71.28 0 142.56 0 216 0 C216 59.4 216 118.8 216 180 C180.36 180 144.72 180 108 180 C108 223.56 108 267.12 108 312 C72.36 312 36.72 312 0 312 C0 248.64 0 185.28 0 120 C19.8 120 39.6 120 60 120 C60 100.2 60 80.4 60 60 C40.2 60 20.4 60 0 60 C0 40.2 0 20.4 0 0 Z " fill="#A973C7" transform="translate(996,1056)"/>
<path d="M0 0 C55.44 0 110.88 0 168 0 C168 19.8 168 39.6 168 60 C187.8 60 207.6 60 228 60 C228 83.76 228 107.52 228 132 C208.2 132 188.4 132 168 132 C168 191.4 168 250.8 168 312 C148.2 312 128.4 312 108 312 C108 272.4 108 232.8 108 192 C36.72 192 -34.56 192 -108 192 C-108 172.2 -108 152.4 -108 132 C-52.56 132 2.88 132 60 132 C60 108.24 60 84.48 60 60 C40.2 60 20.4 60 0 60 C0 40.2 0 20.4 0 0 Z " fill="#4C284F" transform="translate(1104,864)"/>
<path d="M0 0 C55.44 0 110.88 0 168 0 C168 19.8 168 39.6 168 60 C203.64 60 239.28 60 276 60 C276 79.8 276 99.6 276 120 C169.08 120 62.16 120 -48 120 C-48 139.8 -48 159.6 -48 180 C-83.64 180 -119.28 180 -156 180 C-156 160.2 -156 140.4 -156 120 C-140.16 120 -124.32 120 -108 120 C-108 100.2 -108 80.4 -108 60 C-72.36 60 -36.72 60 0 60 C0 40.2 0 20.4 0 0 Z " fill="#A973C7" transform="translate(936,0)"/>
<path d="M0 0 C15.84 0 31.68 0 48 0 C48 19.8 48 39.6 48 60 C83.64 60 119.28 60 156 60 C156 83.76 156 107.52 156 132 C120.36 132 84.72 132 48 132 C48 231 48 330 48 432 C32.16 432 16.32 432 0 432 C0 372.6 0 313.2 0 252 C-39.6 252 -79.2 252 -120 252 C-120 212.4 -120 172.8 -120 132 C-100.2 132 -80.4 132 -60 132 C-60 151.8 -60 171.6 -60 192 C-40.2 192 -20.4 192 0 192 C0 128.64 0 65.28 0 0 Z " fill="#4C284F" transform="translate(1332,492)"/>
<path d="M0 0 C19.8 0 39.6 0 60 0 C60 83.16 60 166.32 60 252 C40.2 252 20.4 252 0 252 C0 267.84 0 283.68 0 300 C-35.64 300 -71.28 300 -108 300 C-108 244.56 -108 189.12 -108 132 C-72.36 132 -36.72 132 0 132 C0 88.44 0 44.88 0 0 Z " fill="#905060" transform="translate(1104,1236)"/>
<path d="M0 0 C19.8 0 39.6 0 60 0 C60 43.56 60 87.12 60 132 C95.64 132 131.28 132 168 132 C168 211.2 168 290.4 168 372 C152.16 372 136.32 372 120 372 C120 332.4 120 292.8 120 252 C100.2 252 80.4 252 60 252 C60 232.2 60 212.4 60 192 C40.2 192 20.4 192 0 192 C0 128.64 0 65.28 0 0 Z " fill="#A973C7" transform="translate(660,492)"/>
<path d="M0 0 C35.64 0 71.28 0 108 0 C108 19.8 108 39.6 108 60 C123.84 60 139.68 60 156 60 C156 40.2 156 20.4 156 0 C175.8 0 195.6 0 216 0 C216 39.6 216 79.2 216 120 C144.72 120 73.44 120 0 120 C0 139.8 0 159.6 0 180 C-19.8 180 -39.6 180 -60 180 C-60 140.4 -60 100.8 -60 60 C-40.2 60 -20.4 60 0 60 C0 40.2 0 20.4 0 0 Z " fill="#CB9DDE" transform="translate(60,312)"/>
<path d="M0 0 C15.84 0 31.68 0 48 0 C48 102.96 48 205.92 48 312 C67.8 312 87.6 312 108 312 C108 331.8 108 351.6 108 372 C127.8 372 147.6 372 168 372 C168 395.76 168 419.52 168 444 C128.4 444 88.8 444 48 444 C48 420.24 48 396.48 48 372 C32.16 372 16.32 372 0 372 C0 249.24 0 126.48 0 0 Z " fill="#C87974" transform="translate(888,552)"/>
<path d="M0 0 C19.8 0 39.6 0 60 0 C60 122.76 60 245.52 60 372 C40.2 372 20.4 372 0 372 C0 292.8 0 213.6 0 132 C-35.64 132 -71.28 132 -108 132 C-108 108.24 -108 84.48 -108 60 C-72.36 60 -36.72 60 0 60 C0 40.2 0 20.4 0 0 Z " fill="#4C284F" transform="translate(828,492)"/>
<path d="M0 0 C130.68 0 261.36 0 396 0 C396 23.76 396 47.52 396 72 C265.32 72 134.64 72 0 72 C0 48.24 0 24.48 0 0 Z " fill="#4C284F" transform="translate(384,180)"/>
<path d="M0 0 C19.8 0 39.6 0 60 0 C60 39.6 60 79.2 60 120 C-50.88 120 -161.76 120 -276 120 C-276 100.2 -276 80.4 -276 60 C-184.92 60 -93.84 60 0 60 C0 40.2 0 20.4 0 0 Z " fill="#C87974" transform="translate(1212,432)"/>
<path d="M0 0 C39.6 0 79.2 0 120 0 C120 63.36 120 126.72 120 192 C80.4 192 40.8 192 0 192 C0 128.64 0 65.28 0 0 Z " fill="#C87974" transform="translate(660,1296)"/>
<path d="M0 0 C55.44 0 110.88 0 168 0 C168 19.8 168 39.6 168 60 C187.8 60 207.6 60 228 60 C228 83.76 228 107.52 228 132 C172.56 132 117.12 132 60 132 C60 108.24 60 84.48 60 60 C40.2 60 20.4 60 0 60 C0 40.2 0 20.4 0 0 Z " fill="#905060" transform="translate(1104,864)"/>
<path d="M0 0 C19.8 0 39.6 0 60 0 C60 83.16 60 166.32 60 252 C40.2 252 20.4 252 0 252 C0 168.84 0 85.68 0 0 Z " fill="#4C284F" transform="translate(1104,1236)"/>
<path d="M0 0 C19.8 0 39.6 0 60 0 C60 83.16 60 166.32 60 252 C40.2 252 20.4 252 0 252 C0 168.84 0 85.68 0 0 Z " fill="#4C284F" transform="translate(216,1236)"/>
<path d="M0 0 C19.8 0 39.6 0 60 0 C60 79.2 60 158.4 60 240 C40.2 240 20.4 240 0 240 C0 160.8 0 81.6 0 0 Z " fill="#4C284F" transform="translate(0,684)"/>
<path d="M0 0 C35.64 0 71.28 0 108 0 C108 43.56 108 87.12 108 132 C72.36 132 36.72 132 0 132 C0 88.44 0 44.88 0 0 Z " fill="#C87974" transform="translate(276,1296)"/>
<path d="M0 0 C55.44 0 110.88 0 168 0 C168 19.8 168 39.6 168 60 C128.4 60 88.8 60 48 60 C48 79.8 48 99.6 48 120 C32.16 120 16.32 120 0 120 C0 80.4 0 40.8 0 0 Z " fill="#905060" transform="translate(888,432)"/>
<path d="M0 0 C35.64 0 71.28 0 108 0 C108 19.8 108 39.6 108 60 C92.16 60 76.32 60 60 60 C60 79.8 60 99.6 60 120 C24.36 120 -11.28 120 -48 120 C-48 100.2 -48 80.4 -48 60 C-32.16 60 -16.32 60 0 60 C0 40.2 0 20.4 0 0 Z " fill="#A973C7" transform="translate(828,60)"/>
<path d="M0 0 C35.64 0 71.28 0 108 0 C108 35.64 108 71.28 108 108 C72.36 108 36.72 108 0 108 C0 72.36 0 36.72 0 0 Z " fill="#905060" transform="translate(276,1428)"/>
<path d="M0 0 C19.8 0 39.6 0 60 0 C60 63.36 60 126.72 60 192 C40.2 192 20.4 192 0 192 C0 128.64 0 65.28 0 0 Z " fill="#C87974" transform="translate(552,1296)"/>
<path d="M0 0 C39.6 0 79.2 0 120 0 C120 19.8 120 39.6 120 60 C100.2 60 80.4 60 60 60 C60 79.8 60 99.6 60 120 C40.2 120 20.4 120 0 120 C0 80.4 0 40.8 0 0 Z " fill="#A973C7" transform="translate(660,252)"/>
<path d="M0 0 C55.44 0 110.88 0 168 0 C168 19.8 168 39.6 168 60 C112.56 60 57.12 60 0 60 C0 40.2 0 20.4 0 0 Z " fill="#A973C7" transform="translate(888,372)"/>
<path d="M0 0 C19.8 0 39.6 0 60 0 C60 39.6 60 79.2 60 120 C24.36 120 -11.28 120 -48 120 C-48 100.2 -48 80.4 -48 60 C-32.16 60 -16.32 60 0 60 C0 40.2 0 20.4 0 0 Z " fill="#A973C7" transform="translate(216,312)"/>
<path d="M0 0 C55.44 0 110.88 0 168 0 C168 19.8 168 39.6 168 60 C112.56 60 57.12 60 0 60 C0 40.2 0 20.4 0 0 Z " fill="#4C284F" transform="translate(936,0)"/>
<path d="M0 0 C15.84 0 31.68 0 48 0 C48 39.6 48 79.2 48 120 C12.36 120 -23.28 120 -60 120 C-60 100.2 -60 80.4 -60 60 C-40.2 60 -20.4 60 0 60 C0 40.2 0 20.4 0 0 Z " fill="#4C284F" transform="translate(1056,624)"/>
<path d="M0 0 C51.48 0 102.96 0 156 0 C156 19.8 156 39.6 156 60 C104.52 60 53.04 60 0 60 C0 40.2 0 20.4 0 0 Z " fill="#C87974" transform="translate(1380,492)"/>
<path d="M0 0 C51.48 0 102.96 0 156 0 C156 19.8 156 39.6 156 60 C104.52 60 53.04 60 0 60 C0 40.2 0 20.4 0 0 Z " fill="#A973C7" transform="translate(1056,432)"/>
<path d="M0 0 C15.84 0 31.68 0 48 0 C48 19.8 48 39.6 48 60 C67.8 60 87.6 60 108 60 C108 79.8 108 99.6 108 120 C72.36 120 36.72 120 0 120 C0 80.4 0 40.8 0 0 Z " fill="#4C284F" transform="translate(1332,312)"/>
<path d="M0 0 C15.84 0 31.68 0 48 0 C48 63.36 48 126.72 48 192 C32.16 192 16.32 192 0 192 C0 128.64 0 65.28 0 0 Z " fill="#4C284F" transform="translate(60,924)"/>
<path d="M0 0 C15.84 0 31.68 0 48 0 C48 63.36 48 126.72 48 192 C32.16 192 16.32 192 0 192 C0 128.64 0 65.28 0 0 Z " fill="#4C284F" transform="translate(60,492)"/>
<path d="M0 0 C19.8 0 39.6 0 60 0 C60 43.56 60 87.12 60 132 C40.2 132 20.4 132 0 132 C0 88.44 0 44.88 0 0 Z " fill="#4C284F" transform="translate(1272,180)"/>
<path d="M0 0 C35.64 0 71.28 0 108 0 C108 23.76 108 47.52 108 72 C72.36 72 36.72 72 0 72 C0 48.24 0 24.48 0 0 Z " fill="#C87974" transform="translate(996,1296)"/>
<path d="M0 0 C39.6 0 79.2 0 120 0 C120 19.8 120 39.6 120 60 C80.4 60 40.8 60 0 60 C0 40.2 0 20.4 0 0 Z " fill="#905060" transform="translate(660,1428)"/>
<path d="M0 0 C39.6 0 79.2 0 120 0 C120 19.8 120 39.6 120 60 C80.4 60 40.8 60 0 60 C0 40.2 0 20.4 0 0 Z " fill="#A973C7" transform="translate(660,1236)"/>
<path d="M0 0 C19.8 0 39.6 0 60 0 C60 39.6 60 79.2 60 120 C40.2 120 20.4 120 0 120 C0 80.4 0 40.8 0 0 Z " fill="#4C284F" transform="translate(0,372)"/>
<path d="M0 0 C35.64 0 71.28 0 108 0 C108 19.8 108 39.6 108 60 C72.36 60 36.72 60 0 60 C0 40.2 0 20.4 0 0 Z " fill="#A973C7" transform="translate(780,1176)"/>
<path d="M0 0 C35.64 0 71.28 0 108 0 C108 19.8 108 39.6 108 60 C72.36 60 36.72 60 0 60 C0 40.2 0 20.4 0 0 Z " fill="#4C284F" transform="translate(780,372)"/>
<path d="M0 0 C35.64 0 71.28 0 108 0 C108 19.8 108 39.6 108 60 C72.36 60 36.72 60 0 60 C0 40.2 0 20.4 0 0 Z " fill="#4C284F" transform="translate(60,312)"/>
<path d="M0 0 C35.64 0 71.28 0 108 0 C108 19.8 108 39.6 108 60 C72.36 60 36.72 60 0 60 C0 40.2 0 20.4 0 0 Z " fill="#4C284F" transform="translate(276,252)"/>
<path d="M0 0 C35.64 0 71.28 0 108 0 C108 19.8 108 39.6 108 60 C72.36 60 36.72 60 0 60 C0 40.2 0 20.4 0 0 Z " fill="#4C284F" transform="translate(1104,60)"/>
<path d="M0 0 C35.64 0 71.28 0 108 0 C108 19.8 108 39.6 108 60 C72.36 60 36.72 60 0 60 C0 40.2 0 20.4 0 0 Z " fill="#4C284F" transform="translate(828,60)"/>
<path d="M0 0 C35.64 0 71.28 0 108 0 C108 15.84 108 31.68 108 48 C72.36 48 36.72 48 0 48 C0 32.16 0 16.32 0 0 Z " fill="#4C284F" transform="translate(996,1488)"/>
<path d="M0 0 C35.64 0 71.28 0 108 0 C108 15.84 108 31.68 108 48 C72.36 48 36.72 48 0 48 C0 32.16 0 16.32 0 0 Z " fill="#4C284F" transform="translate(276,1488)"/>
<path d="M0 0 C19.8 0 39.6 0 60 0 C60 23.76 60 47.52 60 72 C40.2 72 20.4 72 0 72 C0 48.24 0 24.48 0 0 Z " fill="#4C284F" transform="translate(1272,924)"/>
<path d="M0 0 C19.8 0 39.6 0 60 0 C60 23.76 60 47.52 60 72 C40.2 72 20.4 72 0 72 C0 48.24 0 24.48 0 0 Z " fill="#E79F93" transform="translate(1212,924)"/>
<path d="M0 0 C19.8 0 39.6 0 60 0 C60 23.76 60 47.52 60 72 C40.2 72 20.4 72 0 72 C0 48.24 0 24.48 0 0 Z " fill="#C87974" transform="translate(996,924)"/>
<path d="M0 0 C19.8 0 39.6 0 60 0 C60 23.76 60 47.52 60 72 C40.2 72 20.4 72 0 72 C0 48.24 0 24.48 0 0 Z " fill="#4C284F" transform="translate(936,924)"/>
<path d="M0 0 C19.8 0 39.6 0 60 0 C60 19.8 60 39.6 60 60 C40.2 60 20.4 60 0 60 C0 40.2 0 20.4 0 0 Z " fill="#905060" transform="translate(552,1428)"/>
<path d="M0 0 C19.8 0 39.6 0 60 0 C60 19.8 60 39.6 60 60 C40.2 60 20.4 60 0 60 C0 40.2 0 20.4 0 0 Z " fill="#4C284F" transform="translate(108,1116)"/>
<path d="M0 0 C19.8 0 39.6 0 60 0 C60 19.8 60 39.6 60 60 C40.2 60 20.4 60 0 60 C0 40.2 0 20.4 0 0 Z " fill="#A973C7" transform="translate(936,996)"/>
<path d="M0 0 C19.8 0 39.6 0 60 0 C60 19.8 60 39.6 60 60 C40.2 60 20.4 60 0 60 C0 40.2 0 20.4 0 0 Z " fill="#C87974" transform="translate(936,864)"/>
<path d="M0 0 C19.8 0 39.6 0 60 0 C60 19.8 60 39.6 60 60 C40.2 60 20.4 60 0 60 C0 40.2 0 20.4 0 0 Z " fill="#A973C7" transform="translate(828,864)"/>
<path d="M0 0 C19.8 0 39.6 0 60 0 C60 19.8 60 39.6 60 60 C40.2 60 20.4 60 0 60 C0 40.2 0 20.4 0 0 Z " fill="#FFFFFF" transform="translate(1272,624)"/>
<path d="M0 0 C19.8 0 39.6 0 60 0 C60 19.8 60 39.6 60 60 C40.2 60 20.4 60 0 60 C0 40.2 0 20.4 0 0 Z " fill="#FFFFFF" transform="translate(996,624)"/>
<path d="M0 0 C19.8 0 39.6 0 60 0 C60 19.8 60 39.6 60 60 C40.2 60 20.4 60 0 60 C0 40.2 0 20.4 0 0 Z " fill="#E79F93" transform="translate(720,492)"/>
<path d="M0 0 C19.8 0 39.6 0 60 0 C60 19.8 60 39.6 60 60 C40.2 60 20.4 60 0 60 C0 40.2 0 20.4 0 0 Z " fill="#4C284F" transform="translate(660,492)"/>
<path d="M0 0 C19.8 0 39.6 0 60 0 C60 19.8 60 39.6 60 60 C40.2 60 20.4 60 0 60 C0 40.2 0 20.4 0 0 Z " fill="#4C284F" transform="translate(1272,432)"/>
<path d="M0 0 C19.8 0 39.6 0 60 0 C60 19.8 60 39.6 60 60 C40.2 60 20.4 60 0 60 C0 40.2 0 20.4 0 0 Z " fill="#905060" transform="translate(1212,432)"/>
<path d="M0 0 C19.8 0 39.6 0 60 0 C60 19.8 60 39.6 60 60 C40.2 60 20.4 60 0 60 C0 40.2 0 20.4 0 0 Z " fill="#4C284F" transform="translate(720,432)"/>
<path d="M0 0 C19.8 0 39.6 0 60 0 C60 19.8 60 39.6 60 60 C40.2 60 20.4 60 0 60 C0 40.2 0 20.4 0 0 Z " fill="#A973C7" transform="translate(1272,372)"/>
<path d="M0 0 C19.8 0 39.6 0 60 0 C60 19.8 60 39.6 60 60 C40.2 60 20.4 60 0 60 C0 40.2 0 20.4 0 0 Z " fill="#A973C7" transform="translate(276,312)"/>
<path d="M0 0 C19.8 0 39.6 0 60 0 C60 19.8 60 39.6 60 60 C40.2 60 20.4 60 0 60 C0 40.2 0 20.4 0 0 Z " fill="#4C284F" transform="translate(216,312)"/>
<path d="M0 0 C19.8 0 39.6 0 60 0 C60 19.8 60 39.6 60 60 C40.2 60 20.4 60 0 60 C0 40.2 0 20.4 0 0 Z " fill="#A973C7" transform="translate(552,252)"/>
<path d="M0 0 C19.8 0 39.6 0 60 0 C60 19.8 60 39.6 60 60 C40.2 60 20.4 60 0 60 C0 40.2 0 20.4 0 0 Z " fill="#4C284F" transform="translate(1212,120)"/>
<path d="M0 0 C15.84 0 31.68 0 48 0 C48 23.76 48 47.52 48 72 C32.16 72 16.32 72 0 72 C0 48.24 0 24.48 0 0 Z " fill="#A973C7" transform="translate(888,924)"/>
<path d="M0 0 C15.84 0 31.68 0 48 0 C48 23.76 48 47.52 48 72 C32.16 72 16.32 72 0 72 C0 48.24 0 24.48 0 0 Z " fill="#A973C7" transform="translate(780,180)"/>
<path d="M0 0 C15.84 0 31.68 0 48 0 C48 19.8 48 39.6 48 60 C32.16 60 16.32 60 0 60 C0 40.2 0 20.4 0 0 Z " fill="#4C284F" transform="translate(1164,1176)"/>
<path d="M0 0 C15.84 0 31.68 0 48 0 C48 19.8 48 39.6 48 60 C32.16 60 16.32 60 0 60 C0 40.2 0 20.4 0 0 Z " fill="#4C284F" transform="translate(168,1176)"/>
<path d="M0 0 C15.84 0 31.68 0 48 0 C48 19.8 48 39.6 48 60 C32.16 60 16.32 60 0 60 C0 40.2 0 20.4 0 0 Z " fill="#4C284F" transform="translate(888,864)"/>
<path d="M0 0 C15.84 0 31.68 0 48 0 C48 19.8 48 39.6 48 60 C32.16 60 16.32 60 0 60 C0 40.2 0 20.4 0 0 Z " fill="#4C284F" transform="translate(1488,492)"/>
<path d="M0 0 C15.84 0 31.68 0 48 0 C48 19.8 48 39.6 48 60 C32.16 60 16.32 60 0 60 C0 40.2 0 20.4 0 0 Z " fill="#E79F93" transform="translate(1440,492)"/>
<path d="M0 0 C15.84 0 31.68 0 48 0 C48 19.8 48 39.6 48 60 C32.16 60 16.32 60 0 60 C0 40.2 0 20.4 0 0 Z " fill="#905060" transform="translate(888,492)"/>
<path d="M0 0 C15.84 0 31.68 0 48 0 C48 19.8 48 39.6 48 60 C32.16 60 16.32 60 0 60 C0 40.2 0 20.4 0 0 Z " fill="#C87974" transform="translate(780,492)"/>
<path d="M0 0 C15.84 0 31.68 0 48 0 C48 19.8 48 39.6 48 60 C32.16 60 16.32 60 0 60 C0 40.2 0 20.4 0 0 Z " fill="#4C284F" transform="translate(1440,432)"/>
<path d="M0 0 C15.84 0 31.68 0 48 0 C48 19.8 48 39.6 48 60 C32.16 60 16.32 60 0 60 C0 40.2 0 20.4 0 0 Z " fill="#C87974" transform="translate(1332,432)"/>
<path d="M0 0 C15.84 0 31.68 0 48 0 C48 19.8 48 39.6 48 60 C32.16 60 16.32 60 0 60 C0 40.2 0 20.4 0 0 Z " fill="#4C284F" transform="translate(888,432)"/>
<path d="M0 0 C15.84 0 31.68 0 48 0 C48 19.8 48 39.6 48 60 C32.16 60 16.32 60 0 60 C0 40.2 0 20.4 0 0 Z " fill="#E79F93" transform="translate(780,432)"/>
<path d="M0 0 C15.84 0 31.68 0 48 0 C48 19.8 48 39.6 48 60 C32.16 60 16.32 60 0 60 C0 40.2 0 20.4 0 0 Z " fill="#4C284F" transform="translate(168,372)"/>
<path d="M0 0 C15.84 0 31.68 0 48 0 C48 19.8 48 39.6 48 60 C32.16 60 16.32 60 0 60 C0 40.2 0 20.4 0 0 Z " fill="#A973C7" transform="translate(1164,120)"/>
<path d="M0 0 C15.84 0 31.68 0 48 0 C48 19.8 48 39.6 48 60 C32.16 60 16.32 60 0 60 C0 40.2 0 20.4 0 0 Z " fill="#4C284F" transform="translate(780,120)"/>
</svg>
